<svg width="320" height="364" viewBox="0 0 320 364" fill="none" xmlns="http://www.w3.org/2000/svg">
<g opacity="0.15">
<path d="M248.617 217.616L209.692 195.166V191.695L248.617 214.145V217.616ZM248.617 217.616L209.692 195.166V191.695L248.617 214.145V217.616Z" fill="#6088FF"/>
<path d="M319.066 251.034L209.692 187.937V184.467L319.066 247.564V251.034ZM319.066 251.034L209.692 187.937V184.467L319.066 247.564V251.034Z" fill="#6088FF"/>
<path d="M174.185 159.081L72.1273 100.26V96.7899L174.185 155.611V159.081ZM174.185 159.081L72.1273 100.26V96.7899L174.185 155.611V159.081Z" fill="#6088FF"/>
<path d="M97.5281 91.7566L65.9873 73.5419V70.0717L97.5281 88.2864V91.7566ZM97.5281 91.7566L65.9873 73.5419V70.0717L97.5281 88.2864V91.7566Z" fill="#6088FF"/>
<path d="M283.379 173.981L181.32 115.16V111.69L283.379 170.51V173.981ZM283.379 173.981L181.32 115.16V111.69L283.379 170.51V173.981Z" fill="#6088FF"/>
<path d="M157.422 93.8742L118.496 71.4242V67.9541L157.422 90.404V93.8742ZM157.422 93.8742L118.496 71.4242V67.9541L157.422 90.404V93.8742Z" fill="#6088FF"/>
<path d="M263.598 141.179L136.005 67.5135V64.0434L263.598 137.709V141.179ZM263.598 141.179L136.005 67.5135V64.0434L263.598 137.709V141.179Z" fill="#6088FF"/>
</g>
<path d="M203.888 257.84L207.658 333.395C207.687 333.977 207.996 334.509 208.488 334.822C209.679 335.582 211.241 334.733 211.253 333.321L211.897 258.317C211.904 257.403 211.227 256.63 210.321 256.517L205.907 255.966C204.798 255.827 203.833 256.724 203.888 257.84ZM203.888 257.84L207.658 333.395C207.687 333.977 207.996 334.509 208.488 334.822C209.679 335.582 211.241 334.733 211.253 333.321L211.897 258.317C211.904 257.403 211.227 256.63 210.321 256.517L205.907 255.966C204.798 255.827 203.833 256.724 203.888 257.84Z" fill="#36E7F7"/>
<path d="M211.225 256.522L209.619 334.101C209.619 335.646 212.978 335.292 214.227 334.383L214.478 334.201C214.941 333.865 215.226 333.337 215.255 332.767L219.073 257.576C219.119 256.664 218.507 255.85 217.618 255.641L213.549 254.682C212.362 254.402 211.225 255.302 211.225 256.522ZM211.225 256.522L209.619 334.101C209.619 335.646 212.978 335.292 214.227 334.383L214.478 334.201C214.941 333.865 215.226 333.337 215.255 332.767L219.073 257.576C219.119 256.664 218.507 255.85 217.618 255.641L213.549 254.682C212.362 254.402 211.225 255.302 211.225 256.522Z" fill="#88F7FF"/>
<path d="M250.03 236.196L252.795 237.246V240.563H250.03V236.196ZM250.03 236.196L252.795 237.246V240.563H250.03V236.196Z" fill="#0B246E"/>
<path d="M169.65 278.235L46.3916 206.693L117.563 169.039C122.396 166.482 128.206 166.596 132.935 169.341L251.213 237.993C253.381 239.251 253.319 242.403 251.103 243.576L185.021 278.537C180.188 281.093 174.379 280.979 169.65 278.235ZM169.65 278.235L46.3916 206.693L117.563 169.039C122.396 166.482 128.206 166.596 132.935 169.341L251.213 237.993C253.381 239.251 253.319 242.403 251.103 243.576L185.021 278.537C180.188 281.093 174.379 280.979 169.65 278.235Z" fill="#0B246E"/>
<path d="M169.642 274.529L46.384 202.988L117.555 165.334C122.389 162.777 128.198 162.891 132.927 165.636L251.205 234.286C253.374 235.545 253.312 238.697 251.096 239.87L185.014 274.831C180.181 277.388 174.371 277.274 169.642 274.529ZM169.642 274.529L46.384 202.988L117.555 165.334C122.389 162.777 128.198 162.891 132.927 165.636L251.205 234.286C253.374 235.545 253.312 238.697 251.096 239.87L185.014 274.831C180.181 277.388 174.371 277.274 169.642 274.529Z" fill="#88F7FF"/>
<path d="M169.084 227.371L169.079 228.956L147.959 241.23L147.964 239.644L169.084 227.371ZM169.084 227.371L169.079 228.956L147.959 241.23L147.964 239.644L169.084 227.371Z" fill="#D7ECFA"/>
<path d="M147.964 239.644L147.959 241.23L101.213 214.241L101.218 212.655L147.964 239.644ZM147.964 239.644L147.959 241.23L101.213 214.241L101.218 212.655L147.964 239.644Z" fill="#D7ECFA"/>
<path d="M169.084 227.371L147.964 239.644L101.218 212.655L122.338 200.382L169.084 227.371ZM169.084 227.371L147.964 239.644L101.218 212.655L122.338 200.382L169.084 227.371Z" fill="#EEF8FC"/>
<path d="M125.193 203.471L125.19 204.4L122.268 206.099L122.271 205.169L125.193 203.471ZM125.193 203.471L125.19 204.4L122.268 206.099L122.271 205.169L125.193 203.471Z" fill="#D7ECFA"/>
<path d="M122.271 205.169L122.268 206.099L119.385 204.434L119.388 203.505L122.271 205.169ZM122.271 205.169L122.268 206.099L119.385 204.434L119.388 203.505L122.271 205.169Z" fill="#D7ECFA"/>
<path d="M125.193 203.471L122.272 205.169L119.388 203.505L122.31 201.807L125.193 203.471ZM125.193 203.471L122.272 205.169L119.388 203.505L122.31 201.807L125.193 203.471Z" fill="white"/>
<path d="M128.891 205.607L128.888 206.536L125.966 208.234L125.969 207.304L128.891 205.607ZM128.891 205.607L128.888 206.536L125.966 208.234L125.969 207.304L128.891 205.607Z" fill="#D7ECFA"/>
<path d="M125.969 207.304L125.966 208.234L123.083 206.569L123.086 205.64L125.969 207.304ZM125.969 207.304L125.966 208.234L123.083 206.569L123.086 205.64L125.969 207.304Z" fill="#D7ECFA"/>
<path d="M128.892 205.607L125.97 207.304L123.087 205.64L126.009 203.941L128.892 205.607ZM128.892 205.607L125.97 207.304L123.087 205.64L126.009 203.941L128.892 205.607Z" fill="white"/>
<path d="M132.582 207.738L132.58 208.667L129.657 210.365L129.66 209.436L132.582 207.738ZM132.582 207.738L132.58 208.667L129.657 210.365L129.66 209.436L132.582 207.738Z" fill="#D7ECFA"/>
<path d="M129.66 209.436L129.657 210.365L126.775 208.7L126.777 207.771L129.66 209.436ZM129.66 209.436L129.657 210.365L126.775 208.7L126.777 207.771L129.66 209.436Z" fill="#D7ECFA"/>
<path d="M132.583 207.738L129.661 209.436L126.777 207.771L129.7 206.073L132.583 207.738ZM132.583 207.738L129.661 209.436L126.777 207.771L129.7 206.073L132.583 207.738Z" fill="white"/>
<path d="M136.273 209.868L136.271 210.798L133.348 212.496L133.351 211.567L136.273 209.868ZM136.273 209.868L136.271 210.798L133.348 212.496L133.351 211.567L136.273 209.868Z" fill="#D7ECFA"/>
<path d="M133.351 211.567L133.348 212.496L130.466 210.832L130.468 209.902L133.351 211.567ZM133.351 211.567L133.348 212.496L130.466 210.832L130.468 209.902L133.351 211.567Z" fill="#D7ECFA"/>
<path d="M136.274 209.868L133.351 211.567L130.469 209.902L133.391 208.204L136.274 209.868ZM136.274 209.868L133.351 211.567L130.469 209.902L133.391 208.204L136.274 209.868Z" fill="white"/>
<path d="M139.971 212.004L139.969 212.933L137.047 214.631L137.049 213.702L139.971 212.004ZM139.971 212.004L139.969 212.933L137.047 214.631L137.049 213.702L139.971 212.004Z" fill="#D7ECFA"/>
<path d="M137.049 213.702L137.047 214.631L134.164 212.966L134.167 212.037L137.049 213.702ZM137.049 213.702L137.047 214.631L134.164 212.966L134.167 212.037L137.049 213.702Z" fill="#D7ECFA"/>
<path d="M139.972 212.004L137.05 213.702L134.168 212.037L137.089 210.339L139.972 212.004ZM139.972 212.004L137.05 213.702L134.168 212.037L137.089 210.339L139.972 212.004Z" fill="white"/>
<path d="M143.663 214.135L143.66 215.064L140.738 216.762L140.741 215.833L143.663 214.135ZM143.663 214.135L143.66 215.064L140.738 216.762L140.741 215.833L143.663 214.135Z" fill="#D7ECFA"/>
<path d="M140.741 215.833L140.738 216.762L137.855 215.097L137.858 214.168L140.741 215.833ZM140.741 215.833L140.738 216.762L137.855 215.097L137.858 214.168L140.741 215.833Z" fill="#D7ECFA"/>
<path d="M143.663 214.135L140.741 215.833L137.858 214.168L140.78 212.47L143.663 214.135ZM143.663 214.135L140.741 215.833L137.858 214.168L140.78 212.47L143.663 214.135Z" fill="white"/>
<path d="M147.353 216.266L147.351 217.195L144.429 218.894L144.432 217.964L147.353 216.266ZM147.353 216.266L147.351 217.195L144.429 218.894L144.432 217.964L147.353 216.266Z" fill="#D7ECFA"/>
<path d="M144.432 217.964L144.429 218.894L141.546 217.229L141.548 216.299L144.432 217.964ZM144.432 217.964L144.429 218.894L141.546 217.229L141.548 216.299L144.432 217.964Z" fill="#D7ECFA"/>
<path d="M147.354 216.266L144.432 217.964L141.549 216.299L144.471 214.601L147.354 216.266ZM147.354 216.266L144.432 217.964L141.549 216.299L144.471 214.601L147.354 216.266Z" fill="white"/>
<path d="M151.052 218.401L151.049 219.33L148.127 221.028L148.13 220.099L151.052 218.401ZM151.052 218.401L151.049 219.33L148.127 221.028L148.13 220.099L151.052 218.401Z" fill="#D7ECFA"/>
<path d="M148.13 220.099L148.127 221.028L145.237 219.36L145.239 218.43L148.13 220.099ZM148.13 220.099L148.127 221.028L145.237 219.36L145.239 218.43L148.13 220.099Z" fill="#D7ECFA"/>
<path d="M151.053 218.401L148.13 220.099L145.24 218.431L148.163 216.732L151.053 218.401ZM151.053 218.401L148.13 220.099L145.24 218.431L148.163 216.732L151.053 218.401Z" fill="white"/>
<path d="M154.743 220.532L154.74 221.462L151.818 223.16L151.821 222.23L154.743 220.532ZM154.743 220.532L154.74 221.462L151.818 223.16L151.821 222.23L154.743 220.532Z" fill="#D7ECFA"/>
<path d="M151.821 222.23L151.818 223.16L148.935 221.495L148.938 220.565L151.821 222.23ZM151.821 222.23L151.818 223.16L148.935 221.495L148.938 220.565L151.821 222.23Z" fill="#D7ECFA"/>
<path d="M154.744 220.532L151.822 222.23L148.939 220.565L151.861 218.867L154.744 220.532ZM154.744 220.532L151.822 222.23L148.939 220.565L151.861 218.867L154.744 220.532Z" fill="white"/>
<path d="M158.434 222.663L158.431 223.593L155.509 225.291L155.512 224.361L158.434 222.663ZM158.434 222.663L158.431 223.593L155.509 225.291L155.512 224.361L158.434 222.663Z" fill="#D7ECFA"/>
<path d="M155.512 224.361L155.509 225.291L152.626 223.626L152.629 222.697L155.512 224.361ZM155.512 224.361L155.509 225.291L152.626 223.626L152.629 222.697L155.512 224.361Z" fill="#D7ECFA"/>
<path d="M158.434 222.663L155.513 224.361L152.629 222.696L155.552 220.999L158.434 222.663ZM158.434 222.663L155.513 224.361L152.629 222.696L155.552 220.999L158.434 222.663Z" fill="white"/>
<path d="M165.824 226.929L165.821 227.859L162.898 229.557L162.901 228.627L165.824 226.929ZM165.824 226.929L165.821 227.859L162.898 229.557L162.901 228.627L165.824 226.929Z" fill="#D7ECFA"/>
<path d="M162.901 228.627L162.898 229.557L156.318 225.757L156.32 224.828L162.901 228.627ZM162.901 228.627L162.898 229.557L156.318 225.757L156.32 224.828L162.901 228.627Z" fill="#D7ECFA"/>
<path d="M165.824 226.929L162.902 228.627L156.321 224.828L159.243 223.13L165.824 226.929ZM165.824 226.929L162.902 228.627L156.321 224.828L159.243 223.13L165.824 226.929Z" fill="white"/>
<path d="M125.166 207.771L125.163 208.701L122.242 210.398L122.244 209.469L125.166 207.771ZM125.166 207.771L125.163 208.701L122.242 210.398L122.244 209.469L125.166 207.771Z" fill="#D7ECFA"/>
<path d="M122.244 209.469L122.242 210.398L115.66 206.599L115.663 205.669L122.244 209.469ZM122.244 209.469L122.242 210.398L115.66 206.599L115.663 205.669L122.244 209.469Z" fill="#D7ECFA"/>
<path d="M125.167 207.771L122.245 209.469L115.663 205.669L118.586 203.971L125.167 207.771ZM125.167 207.771L122.245 209.469L115.663 205.669L118.586 203.971L125.167 207.771Z" fill="white"/>
<path d="M128.857 209.902L128.855 210.832L125.932 212.53L125.935 211.6L128.857 209.902ZM128.857 209.902L128.855 210.832L125.932 212.53L125.935 211.6L128.857 209.902Z" fill="#D7ECFA"/>
<path d="M125.935 211.6L125.932 212.53L123.05 210.865L123.053 209.935L125.935 211.6ZM125.935 211.6L125.932 212.53L123.05 210.865L123.053 209.935L125.935 211.6Z" fill="#D7ECFA"/>
<path d="M128.858 209.902L125.936 211.6L123.054 209.935L125.975 208.237L128.858 209.902ZM128.858 209.902L125.936 211.6L123.054 209.935L125.975 208.237L128.858 209.902Z" fill="white"/>
<path d="M132.548 212.033L132.546 212.963L129.623 214.661L129.626 213.731L132.548 212.033ZM132.548 212.033L132.546 212.963L129.623 214.661L129.626 213.731L132.548 212.033Z" fill="#D7ECFA"/>
<path d="M129.626 213.731L129.623 214.661L126.741 212.996L126.743 212.066L129.626 213.731ZM129.626 213.731L129.623 214.661L126.741 212.996L126.743 212.066L129.626 213.731Z" fill="#D7ECFA"/>
<path d="M132.549 212.033L129.627 213.731L126.744 212.066L129.666 210.368L132.549 212.033ZM132.549 212.033L129.627 213.731L126.744 212.066L129.666 210.368L132.549 212.033Z" fill="white"/>
<path d="M136.247 214.168L136.244 215.098L133.322 216.796L133.324 215.866L136.247 214.168ZM136.247 214.168L136.244 215.098L133.322 216.796L133.324 215.866L136.247 214.168Z" fill="#D7ECFA"/>
<path d="M133.324 215.866L133.322 216.796L130.439 215.131L130.442 214.202L133.324 215.866ZM133.324 215.866L133.322 216.796L130.439 215.131L130.442 214.202L133.324 215.866Z" fill="#D7ECFA"/>
<path d="M136.247 214.168L133.324 215.866L130.442 214.202L133.363 212.503L136.247 214.168ZM136.247 214.168L133.324 215.866L130.442 214.202L133.363 212.503L136.247 214.168Z" fill="white"/>
<path d="M139.937 216.299L139.935 217.229L137.012 218.927L137.015 217.997L139.937 216.299ZM139.937 216.299L139.935 217.229L137.012 218.927L137.015 217.997L139.937 216.299Z" fill="#D7ECFA"/>
<path d="M137.016 217.997L137.013 218.927L134.13 217.262L134.132 216.333L137.016 217.997ZM137.016 217.997L137.013 218.927L134.13 217.262L134.132 216.333L137.016 217.997Z" fill="#D7ECFA"/>
<path d="M139.938 216.299L137.016 217.997L134.133 216.333L137.055 214.635L139.938 216.299ZM139.938 216.299L137.016 217.997L134.133 216.333L137.055 214.635L139.938 216.299Z" fill="white"/>
<path d="M143.628 218.431L143.626 219.36L140.704 221.058L140.707 220.128L143.628 218.431ZM143.628 218.431L143.626 219.36L140.704 221.058L140.707 220.128L143.628 218.431Z" fill="#D7ECFA"/>
<path d="M140.707 220.128L140.704 221.058L137.821 219.393L137.823 218.464L140.707 220.128ZM140.707 220.128L140.704 221.058L137.821 219.393L137.823 218.464L140.707 220.128Z" fill="#D7ECFA"/>
<path d="M143.629 218.431L140.707 220.129L137.824 218.464L140.746 216.765L143.629 218.431ZM143.629 218.431L140.707 220.129L137.824 218.464L140.746 216.765L143.629 218.431Z" fill="white"/>
<path d="M147.327 220.565L147.324 221.495L144.402 223.193L144.405 222.263L147.327 220.565ZM147.327 220.565L147.324 221.495L144.402 223.193L144.405 222.263L147.327 220.565Z" fill="#D7ECFA"/>
<path d="M144.405 222.263L144.403 223.193L141.512 221.525L141.515 220.595L144.405 222.263ZM144.405 222.263L144.403 223.193L141.512 221.525L141.515 220.595L144.405 222.263Z" fill="#D7ECFA"/>
<path d="M147.328 220.565L144.405 222.263L141.515 220.595L144.438 218.897L147.328 220.565ZM147.328 220.565L144.405 222.263L141.515 220.595L144.438 218.897L147.328 220.565Z" fill="white"/>
<path d="M151.018 222.696L151.015 223.626L148.093 225.324L148.096 224.394L151.018 222.696ZM151.018 222.696L151.015 223.626L148.093 225.324L148.096 224.394L151.018 222.696Z" fill="#D7ECFA"/>
<path d="M148.096 224.394L148.093 225.324L145.21 223.659L145.213 222.73L148.096 224.394ZM148.096 224.394L148.093 225.324L145.21 223.659L145.213 222.73L148.096 224.394Z" fill="#D7ECFA"/>
<path d="M151.018 222.696L148.096 224.394L145.213 222.73L148.135 221.032L151.018 222.696ZM151.018 222.696L148.096 224.394L145.213 222.73L148.135 221.032L151.018 222.696Z" fill="white"/>
<path d="M154.709 224.828L154.707 225.757L151.784 227.455L151.787 226.526L154.709 224.828ZM154.709 224.828L154.707 225.757L151.784 227.455L151.787 226.526L154.709 224.828Z" fill="#D7ECFA"/>
<path d="M151.787 226.526L151.784 227.455L148.902 225.79L148.904 224.861L151.787 226.526ZM151.787 226.526L151.784 227.455L148.902 225.79L148.904 224.861L151.787 226.526Z" fill="#D7ECFA"/>
<path d="M154.71 224.828L151.788 226.526L148.905 224.861L151.827 223.163L154.71 224.828ZM154.71 224.828L151.788 226.526L148.905 224.861L151.827 223.163L154.71 224.828Z" fill="white"/>
<path d="M158.407 226.962L158.404 227.892L155.483 229.59L155.485 228.661L158.407 226.962ZM158.407 226.962L158.404 227.892L155.483 229.59L155.485 228.661L158.407 226.962Z" fill="#D7ECFA"/>
<path d="M155.485 228.661L155.483 229.59L152.593 227.922L152.595 226.992L155.485 228.661ZM155.485 228.661L155.483 229.59L152.593 227.922L152.595 226.992L155.485 228.661Z" fill="#D7ECFA"/>
<path d="M158.408 226.962L155.486 228.661L152.596 226.992L155.518 225.294L158.408 226.962ZM158.408 226.962L155.486 228.661L152.596 226.992L155.518 225.294L158.408 226.962Z" fill="white"/>
<path d="M162.099 229.093L162.096 230.023L159.174 231.721L159.176 230.792L162.099 229.093ZM162.099 229.093L162.096 230.023L159.174 231.721L159.176 230.792L162.099 229.093Z" fill="#D7ECFA"/>
<path d="M159.176 230.792L159.174 231.721L156.291 230.057L156.294 229.127L159.176 230.792ZM159.176 230.792L159.174 231.721L156.291 230.057L156.294 229.127L159.176 230.792Z" fill="#D7ECFA"/>
<path d="M162.099 229.093L159.176 230.792L156.294 229.127L159.215 227.429L162.099 229.093ZM162.099 229.093L159.176 230.792L156.294 229.127L159.215 227.429L162.099 229.093Z" fill="white"/>
<path d="M121.441 209.935L121.438 210.865L118.517 212.563L118.519 211.633L121.441 209.935ZM121.441 209.935L121.438 210.865L118.517 212.563L118.519 211.633L121.441 209.935Z" fill="#D7ECFA"/>
<path d="M118.519 211.633L118.517 212.563L111.935 208.763L111.938 207.834L118.519 211.633ZM118.519 211.633L118.517 212.563L111.935 208.763L111.938 207.834L118.519 211.633Z" fill="#D7ECFA"/>
<path d="M121.441 209.935L118.52 211.633L111.938 207.834L114.861 206.136L121.441 209.935ZM121.441 209.935L118.52 211.633L111.938 207.834L114.861 206.136L121.441 209.935Z" fill="white"/>
<path d="M125.132 212.066L125.13 212.996L122.207 214.694L122.21 213.764L125.132 212.066ZM125.132 212.066L125.13 212.996L122.207 214.694L122.21 213.764L125.132 212.066Z" fill="#D7ECFA"/>
<path d="M122.21 213.764L122.207 214.694L119.325 213.03L119.327 212.1L122.21 213.764ZM122.21 213.764L122.207 214.694L119.325 213.03L119.327 212.1L122.21 213.764Z" fill="#D7ECFA"/>
<path d="M125.133 212.066L122.211 213.764L119.328 212.1L122.25 210.402L125.133 212.066ZM125.133 212.066L122.211 213.764L119.328 212.1L122.25 210.402L125.133 212.066Z" fill="white"/>
<path d="M128.823 214.198L128.821 215.127L125.898 216.825L125.901 215.896L128.823 214.198ZM128.823 214.198L128.821 215.127L125.898 216.825L125.901 215.896L128.823 214.198Z" fill="#D7ECFA"/>
<path d="M125.901 215.896L125.899 216.826L123.016 215.16L123.018 214.231L125.901 215.896ZM125.901 215.896L125.899 216.826L123.016 215.16L123.018 214.231L125.901 215.896Z" fill="#D7ECFA"/>
<path d="M128.824 214.198L125.902 215.896L123.019 214.231L125.941 212.533L128.824 214.198ZM128.824 214.198L125.902 215.896L123.019 214.231L125.941 212.533L128.824 214.198Z" fill="white"/>
<path d="M132.522 216.333L132.519 217.262L129.597 218.96L129.6 218.031L132.522 216.333ZM132.522 216.333L132.519 217.262L129.597 218.96L129.6 218.031L132.522 216.333Z" fill="#D7ECFA"/>
<path d="M129.6 218.031L129.597 218.96L126.714 217.296L126.717 216.366L129.6 218.031ZM129.6 218.031L129.597 218.96L126.714 217.296L126.717 216.366L129.6 218.031Z" fill="#D7ECFA"/>
<path d="M132.523 216.333L129.601 218.031L126.718 216.366L129.639 214.668L132.523 216.333ZM132.523 216.333L129.601 218.031L126.718 216.366L129.639 214.668L132.523 216.333Z" fill="white"/>
<path d="M136.212 218.464L136.21 219.393L133.288 221.091L133.291 220.162L136.212 218.464ZM136.212 218.464L136.21 219.393L133.288 221.091L133.291 220.162L136.212 218.464Z" fill="#D7ECFA"/>
<path d="M133.291 220.162L133.288 221.091L130.405 219.427L130.408 218.497L133.291 220.162ZM133.291 220.162L133.288 221.091L130.405 219.427L130.408 218.497L133.291 220.162Z" fill="#D7ECFA"/>
<path d="M136.213 218.464L133.292 220.162L130.409 218.497L133.331 216.799L136.213 218.464ZM136.213 218.464L133.292 220.162L130.409 218.497L133.331 216.799L136.213 218.464Z" fill="white"/>
<path d="M139.904 220.595L139.901 221.525L136.979 223.222L136.982 222.293L139.904 220.595ZM139.904 220.595L139.901 221.525L136.979 223.222L136.982 222.293L139.904 220.595Z" fill="#D7ECFA"/>
<path d="M136.982 222.293L136.979 223.223L134.096 221.558L134.098 220.628L136.982 222.293ZM136.982 222.293L136.979 223.223L134.096 221.558L134.098 220.628L136.982 222.293Z" fill="#D7ECFA"/>
<path d="M139.904 220.595L136.983 222.293L134.099 220.628L137.022 218.93L139.904 220.595ZM139.904 220.595L136.983 222.293L134.099 220.628L137.022 218.93L139.904 220.595Z" fill="white"/>
<path d="M143.602 222.73L143.599 223.659L140.677 225.358L140.68 224.428L143.602 222.73ZM143.602 222.73L143.599 223.659L140.677 225.358L140.68 224.428L143.602 222.73Z" fill="#D7ECFA"/>
<path d="M140.68 224.428L140.678 225.358L137.787 223.689L137.79 222.759L140.68 224.428ZM140.68 224.428L140.678 225.358L137.787 223.689L137.79 222.759L140.68 224.428Z" fill="#D7ECFA"/>
<path d="M143.603 222.73L140.681 224.428L137.79 222.759L140.713 221.061L143.603 222.73ZM143.603 222.73L140.681 224.428L137.79 222.759L140.713 221.061L143.603 222.73Z" fill="white"/>
<path d="M147.293 224.861L147.29 225.791L144.369 227.488L144.371 226.559L147.293 224.861ZM147.293 224.861L147.29 225.791L144.369 227.488L144.371 226.559L147.293 224.861Z" fill="#D7ECFA"/>
<path d="M144.371 226.559L144.369 227.488L141.485 225.824L141.488 224.895L144.371 226.559ZM144.371 226.559L144.369 227.488L141.485 225.824L141.488 224.895L144.371 226.559Z" fill="#D7ECFA"/>
<path d="M147.294 224.861L144.372 226.559L141.489 224.895L144.411 223.197L147.294 224.861ZM147.294 224.861L144.372 226.559L141.489 224.895L144.411 223.197L147.294 224.861Z" fill="white"/>
<path d="M150.984 226.992L150.982 227.922L148.059 229.62L148.062 228.69L150.984 226.992ZM150.984 226.992L150.982 227.922L148.059 229.62L148.062 228.69L150.984 226.992Z" fill="#D7ECFA"/>
<path d="M148.062 228.69L148.059 229.619L145.177 227.955L145.179 227.026L148.062 228.69ZM148.062 228.69L148.059 229.619L145.177 227.955L145.179 227.026L148.062 228.69Z" fill="#D7ECFA"/>
<path d="M150.985 226.992L148.063 228.69L145.18 227.026L148.102 225.327L150.985 226.992ZM150.985 226.992L148.063 228.69L145.18 227.026L148.102 225.327L150.985 226.992Z" fill="white"/>
<path d="M158.374 231.258L158.371 232.188L155.449 233.886L155.451 232.956L158.374 231.258ZM158.374 231.258L158.371 232.188L155.449 233.886L155.451 232.956L158.374 231.258Z" fill="#D7ECFA"/>
<path d="M155.451 232.956L155.449 233.886L148.868 230.086L148.87 229.157L155.451 232.956ZM155.451 232.956L155.449 233.886L148.868 230.086L148.87 229.157L155.451 232.956Z" fill="#D7ECFA"/>
<path d="M158.374 231.258L155.452 232.956L148.871 229.157L151.793 227.458L158.374 231.258ZM158.374 231.258L155.452 232.956L148.871 229.157L151.793 227.458L158.374 231.258Z" fill="white"/>
<path d="M121.4 214.236L121.397 215.165L118.476 216.863L118.478 215.934L121.4 214.236ZM121.4 214.236L121.397 215.165L118.476 216.863L118.478 215.934L121.4 214.236Z" fill="#D7ECFA"/>
<path d="M118.478 215.934L118.476 216.863L108.203 210.932L108.205 210.003L118.478 215.934ZM118.478 215.934L118.476 216.863L108.203 210.932L108.205 210.003L118.478 215.934Z" fill="#D7ECFA"/>
<path d="M121.401 214.236L118.479 215.934L108.206 210.003L111.128 208.305L121.401 214.236ZM121.401 214.236L118.479 215.934L108.206 210.003L111.128 208.305L121.401 214.236Z" fill="white"/>
<path d="M125.091 216.366L125.088 217.296L122.166 218.994L122.169 218.065L125.091 216.366ZM125.091 216.366L125.088 217.296L122.166 218.994L122.169 218.065L125.091 216.366Z" fill="#D7ECFA"/>
<path d="M122.169 218.065L122.166 218.994L119.283 217.33L119.286 216.401L122.169 218.065ZM122.169 218.065L122.166 218.994L119.283 217.33L119.286 216.401L122.169 218.065Z" fill="#D7ECFA"/>
<path d="M125.092 216.366L122.17 218.065L119.287 216.401L122.209 214.702L125.092 216.366ZM125.092 216.366L122.17 218.065L119.287 216.401L122.209 214.702L125.092 216.366Z" fill="white"/>
<path d="M128.789 218.502L128.787 219.432L125.865 221.13L125.868 220.2L128.789 218.502ZM128.789 218.502L128.787 219.432L125.865 221.13L125.868 220.2L128.789 218.502Z" fill="#D7ECFA"/>
<path d="M125.868 220.2L125.865 221.13L122.982 219.465L122.984 218.535L125.868 220.2ZM125.868 220.2L125.865 221.13L122.982 219.465L122.984 218.535L125.868 220.2Z" fill="#D7ECFA"/>
<path d="M128.79 218.502L125.869 220.2L122.985 218.535L125.908 216.837L128.79 218.502ZM128.79 218.502L125.869 220.2L122.985 218.535L125.908 216.837L128.79 218.502Z" fill="white"/>
<path d="M132.481 220.633L132.478 221.562L129.556 223.261L129.558 222.331L132.481 220.633ZM132.481 220.633L132.478 221.562L129.556 223.261L129.558 222.331L132.481 220.633Z" fill="#D7ECFA"/>
<path d="M129.558 222.331L129.556 223.261L126.672 221.596L126.675 220.667L129.558 222.331ZM129.558 222.331L129.556 223.261L126.672 221.596L126.675 220.667L129.558 222.331Z" fill="#D7ECFA"/>
<path d="M132.481 220.633L129.558 222.331L126.676 220.667L129.598 218.969L132.481 220.633ZM132.481 220.633L129.558 222.331L126.676 220.667L129.598 218.969L132.481 220.633Z" fill="white"/>
<path d="M136.172 222.764L136.169 223.693L133.247 225.392L133.249 224.462L136.172 222.764ZM136.172 222.764L136.169 223.693L133.247 225.392L133.249 224.462L136.172 222.764Z" fill="#D7ECFA"/>
<path d="M133.249 224.462L133.247 225.392L130.364 223.727L130.367 222.798L133.249 224.462ZM133.249 224.462L133.247 225.392L130.364 223.727L130.367 222.798L133.249 224.462Z" fill="#D7ECFA"/>
<path d="M136.172 222.764L133.249 224.462L130.367 222.798L133.288 221.1L136.172 222.764ZM136.172 222.764L133.249 224.462L130.367 222.798L133.288 221.1L136.172 222.764Z" fill="white"/>
<path d="M139.87 224.899L139.868 225.829L136.945 227.527L136.947 226.597L139.87 224.899ZM139.87 224.899L139.868 225.829L136.945 227.527L136.947 226.597L139.87 224.899Z" fill="#D7ECFA"/>
<path d="M136.947 226.597L136.945 227.527L134.055 225.858L134.058 224.929L136.947 226.597ZM136.947 226.597L136.945 227.527L134.055 225.858L134.058 224.929L136.947 226.597Z" fill="#D7ECFA"/>
<path d="M139.871 224.899L136.948 226.597L134.059 224.929L136.981 223.23L139.871 224.899ZM139.871 224.899L136.948 226.597L134.059 224.929L136.981 223.23L139.871 224.899Z" fill="white"/>
<path d="M143.561 227.03L143.558 227.96L140.636 229.658L140.639 228.729L143.561 227.03ZM143.561 227.03L143.558 227.96L140.636 229.658L140.639 228.729L143.561 227.03Z" fill="#D7ECFA"/>
<path d="M140.639 228.729L140.636 229.658L137.753 227.994L137.756 227.064L140.639 228.729ZM140.639 228.729L140.636 229.658L137.753 227.994L137.756 227.064L140.639 228.729Z" fill="#D7ECFA"/>
<path d="M143.561 227.03L140.639 228.729L137.756 227.064L140.678 225.366L143.561 227.03ZM143.561 227.03L140.639 228.729L137.756 227.064L140.678 225.366L143.561 227.03Z" fill="white"/>
<path d="M147.252 229.161L147.249 230.091L144.327 231.789L144.33 230.859L147.252 229.161ZM147.252 229.161L147.249 230.091L144.327 231.789L144.33 230.859L147.252 229.161Z" fill="#D7ECFA"/>
<path d="M144.33 230.859L144.327 231.789L141.444 230.124L141.447 229.195L144.33 230.859ZM144.33 230.859L144.327 231.789L141.444 230.124L141.447 229.195L144.33 230.859Z" fill="#D7ECFA"/>
<path d="M147.252 229.161L144.33 230.859L141.447 229.195L144.369 227.497L147.252 229.161ZM147.252 229.161L144.33 230.859L141.447 229.195L144.369 227.497L147.252 229.161Z" fill="white"/>
<path d="M154.641 233.428L154.639 234.357L151.717 236.055L151.719 235.126L154.641 233.428ZM154.641 233.428L154.639 234.357L151.717 236.055L151.719 235.126L154.641 233.428Z" fill="#D7ECFA"/>
<path d="M151.719 235.126L151.717 236.055L145.135 232.256L145.138 231.326L151.719 235.126ZM151.719 235.126L151.717 236.055L145.135 232.256L145.138 231.326L151.719 235.126Z" fill="#D7ECFA"/>
<path d="M154.642 233.428L151.72 235.126L145.139 231.326L148.061 229.628L154.642 233.428ZM154.642 233.428L151.72 235.126L145.139 231.326L148.061 229.628L154.642 233.428Z" fill="white"/>
<path d="M110.286 212.134L110.283 213.064L107.361 214.762L107.364 213.832L110.286 212.134ZM110.286 212.134L110.283 213.064L107.361 214.762L107.364 213.832L110.286 212.134Z" fill="#D7ECFA"/>
<path d="M107.364 213.832L107.361 214.762L104.478 213.097L104.481 212.168L107.364 213.832ZM107.364 213.832L107.361 214.762L104.478 213.097L104.481 212.168L107.364 213.832Z" fill="#D7ECFA"/>
<path d="M110.286 212.134L107.365 213.832L104.482 212.168L107.404 210.47L110.286 212.134ZM110.286 212.134L107.365 213.832L104.482 212.168L107.404 210.47L110.286 212.134Z" fill="white"/>
<path d="M113.984 214.269L113.981 215.199L111.06 216.897L111.062 215.967L113.984 214.269ZM113.984 214.269L113.981 215.199L111.06 216.897L111.062 215.967L113.984 214.269Z" fill="#D7ECFA"/>
<path d="M111.062 215.968L111.06 216.897L108.176 215.232L108.179 214.302L111.062 215.968ZM111.062 215.968L111.06 216.897L108.176 215.232L108.179 214.302L111.062 215.968Z" fill="#D7ECFA"/>
<path d="M113.984 214.269L111.062 215.967L108.179 214.302L111.101 212.604L113.984 214.269ZM113.984 214.269L111.062 215.967L108.179 214.302L111.101 212.604L113.984 214.269Z" fill="white"/>
<path d="M117.675 216.401L117.672 217.33L114.751 219.028L114.753 218.099L117.675 216.401ZM117.675 216.401L117.672 217.33L114.751 219.028L114.753 218.099L117.675 216.401Z" fill="#D7ECFA"/>
<path d="M114.753 218.099L114.751 219.028L111.867 217.363L111.87 216.434L114.753 218.099ZM114.753 218.099L114.751 219.028L111.867 217.363L111.87 216.434L114.753 218.099Z" fill="#D7ECFA"/>
<path d="M117.675 216.401L114.753 218.099L111.87 216.434L114.792 214.736L117.675 216.401ZM117.675 216.401L114.753 218.099L111.87 216.434L114.792 214.736L117.675 216.401Z" fill="white"/>
<path d="M136.145 227.064L136.143 227.993L133.22 229.691L133.223 228.762L136.145 227.064ZM136.145 227.064L136.143 227.993L133.22 229.691L133.223 228.762L136.145 227.064Z" fill="#D7ECFA"/>
<path d="M133.223 228.762L133.22 229.691L115.558 219.495L115.561 218.565L133.223 228.762ZM133.223 228.762L133.22 229.691L115.558 219.495L115.561 218.565L133.223 228.762Z" fill="#D7ECFA"/>
<path d="M136.146 227.064L133.224 228.762L115.561 218.565L118.484 216.867L136.146 227.064ZM136.146 227.064L133.224 228.762L115.561 218.565L118.484 216.867L136.146 227.064Z" fill="white"/>
<path d="M139.836 229.195L139.834 230.124L136.911 231.823L136.914 230.893L139.836 229.195ZM139.836 229.195L139.834 230.124L136.911 231.823L136.914 230.893L139.836 229.195Z" fill="#D7ECFA"/>
<path d="M136.914 230.893L136.911 231.823L134.028 230.158L134.031 229.228L136.914 230.893ZM136.914 230.893L136.911 231.823L134.028 230.158L134.031 229.228L136.914 230.893Z" fill="#D7ECFA"/>
<path d="M139.836 229.195L136.914 230.893L134.031 229.228L136.953 227.53L139.836 229.195ZM139.836 229.195L136.914 230.893L134.031 229.228L136.953 227.53L139.836 229.195Z" fill="white"/>
<path d="M143.527 231.326L143.524 232.256L140.603 233.954L140.605 233.024L143.527 231.326ZM143.527 231.326L143.524 232.256L140.603 233.954L140.605 233.024L143.527 231.326Z" fill="#D7ECFA"/>
<path d="M140.605 233.024L140.603 233.954L137.719 232.289L137.722 231.36L140.605 233.024ZM140.605 233.024L140.603 233.954L137.719 232.289L137.722 231.36L140.605 233.024Z" fill="#D7ECFA"/>
<path d="M143.527 231.326L140.605 233.024L137.722 231.359L140.644 229.662L143.527 231.326ZM143.527 231.326L140.605 233.024L137.722 231.359L140.644 229.662L143.527 231.326Z" fill="white"/>
<path d="M150.916 235.592L150.913 236.522L147.992 238.22L147.994 237.29L150.916 235.592ZM150.916 235.592L150.913 236.522L147.992 238.22L147.994 237.29L150.916 235.592Z" fill="#D7ECFA"/>
<path d="M147.994 237.29L147.992 238.22L141.41 234.42L141.413 233.491L147.994 237.29ZM147.994 237.29L147.992 238.22L141.41 234.42L141.413 233.491L147.994 237.29Z" fill="#D7ECFA"/>
<path d="M150.916 235.592L147.994 237.29L141.413 233.491L144.335 231.793L150.916 235.592ZM150.916 235.592L147.994 237.29L141.413 233.491L144.335 231.793L150.916 235.592Z" fill="white"/>
<path d="M194.235 252.447C190.341 254.695 184.029 254.695 180.134 252.447C176.24 250.199 176.24 246.554 180.134 244.306C184.029 242.058 190.341 242.058 194.235 244.306C198.129 246.554 198.129 250.199 194.235 252.447ZM194.235 252.447C190.341 254.695 184.029 254.695 180.134 252.447C176.24 250.199 176.24 246.554 180.134 244.306C184.029 242.058 190.341 242.058 194.235 244.306C198.129 246.554 198.129 250.199 194.235 252.447Z" fill="#36E7F7"/>
<path d="M197.156 248.376H177.214V231.705H197.156V248.376ZM197.156 248.376H177.214V231.705H197.156V248.376Z" fill="#36E7F7"/>
<path d="M194.236 235.775C190.342 238.023 184.029 238.023 180.134 235.775C176.24 233.527 176.24 229.882 180.134 227.634C184.029 225.386 190.342 225.386 194.236 227.634C198.13 229.882 198.129 233.527 194.236 235.775ZM194.236 235.775C190.342 238.023 184.029 238.023 180.134 235.775C176.24 233.527 176.24 229.882 180.134 227.634C184.029 225.386 190.342 225.386 194.236 227.634C198.13 229.882 198.129 233.527 194.236 235.775Z" fill="white"/>
<path d="M194.769 232.943C194.379 233.483 193.765 233.993 192.918 234.427C189.816 236.016 184.795 236.016 181.693 234.427C180.846 233.993 180.232 233.483 179.85 232.943C178.823 231.505 179.438 229.826 181.693 228.672C184.795 227.084 189.816 227.084 192.918 228.672C195.173 229.826 195.788 231.505 194.769 232.943ZM194.769 232.943C194.379 233.483 193.765 233.993 192.918 234.427C189.816 236.016 184.795 236.016 181.693 234.427C180.846 233.993 180.232 233.483 179.85 232.943C178.823 231.505 179.438 229.826 181.693 228.672C184.795 227.084 189.816 227.084 192.918 228.672C195.173 229.826 195.788 231.505 194.769 232.943Z" fill="#EBEBEB"/>
<path d="M194.769 232.943C194.379 233.483 193.765 233.993 192.918 234.427C189.816 236.016 184.795 236.016 181.693 234.427C180.846 233.993 180.232 233.483 179.85 232.943C180.232 232.404 180.846 231.894 181.693 231.46C184.795 229.871 189.816 229.871 192.918 231.46C193.765 231.894 194.379 232.404 194.769 232.943ZM194.769 232.943C194.379 233.483 193.765 233.993 192.918 234.427C189.816 236.016 184.795 236.016 181.693 234.427C180.846 233.993 180.232 233.483 179.85 232.943C180.232 232.404 180.846 231.894 181.693 231.46C184.795 229.871 189.816 229.871 192.918 231.46C193.765 231.894 194.379 232.404 194.769 232.943Z" fill="#544438"/>
<path d="M112.742 202.142L88.4215 188.101L122.817 168.243L147.137 182.284L112.742 202.142ZM112.742 202.142L88.4215 188.101L122.817 168.243L147.137 182.284L112.742 202.142Z" fill="white"/>
<path d="M113.23 197.386L91.2697 184.708L122.328 166.776L144.289 179.455L113.23 197.386ZM113.23 197.386L91.2697 184.708L122.328 166.776L144.289 179.455L113.23 197.386Z" fill="#4661AD"/>
<path d="M164.623 217.407L148.758 208.247C147.737 207.657 147.737 206.184 148.758 205.594L166.822 195.165L187.185 206.921L169.024 217.407C167.662 218.193 165.985 218.193 164.623 217.407ZM164.623 217.407L148.758 208.247C147.737 207.657 147.737 206.184 148.758 205.594L166.822 195.165L187.185 206.921L169.024 217.407C167.662 218.193 165.985 218.193 164.623 217.407Z" fill="#0B246E"/>
<path d="M138.796 123.654L136.475 125.224L138.732 182.628L212.367 227.664L214.475 226.249C214.803 226.029 214.999 225.66 214.999 225.266V168.3C214.999 167.653 214.654 167.056 214.095 166.733L139.459 123.631C139.252 123.511 138.995 123.52 138.796 123.654ZM138.796 123.654L136.475 125.224L138.732 182.628L212.367 227.664L214.475 226.249C214.803 226.029 214.999 225.66 214.999 225.266V168.3C214.999 167.653 214.654 167.056 214.095 166.733L139.459 123.631C139.252 123.511 138.995 123.52 138.796 123.654Z" fill="#0B246E"/>
<path d="M211.463 168.168C212.161 168.572 212.59 169.316 212.59 170.121V227.073C212.59 227.588 212.033 227.91 211.587 227.653L138.101 185.22C137.001 184.585 136.322 183.409 136.322 182.137V125.601C136.322 125.237 136.717 125.008 137.033 125.191L211.463 168.168ZM211.463 168.168C212.161 168.572 212.59 169.316 212.59 170.121V227.073C212.59 227.588 212.033 227.91 211.587 227.653L138.101 185.22C137.001 184.585 136.322 183.409 136.322 182.137V125.601C136.322 125.237 136.717 125.008 137.033 125.191" fill="#36E7F7"/>
<path d="M136.322 173.315V127.654L212.493 171.646L212.59 217.354L136.322 173.315ZM136.322 173.315V127.654L212.493 171.646L212.59 217.354L136.322 173.315Z" fill="white"/>
<path d="M144.656 172.428L204.643 207.061" stroke="#44E9F8" stroke-width="3.22083" stroke-dasharray="111.12 8.05"/>
<path d="M144.656 168.681L204.643 203.314" stroke="#44E9F8" stroke-width="3.22083" stroke-dasharray="111.12 8.05"/>
<path d="M162.201 175.064C179.904 185.285 204.643 199.568 204.643 199.568" stroke="#44E9F8" stroke-width="3.22083" stroke-dasharray="111.12 8.05"/>
<path d="M144.656 157.441C144.656 157.441 173.085 173.855 190.801 184.083" stroke="#44E9F8" stroke-width="3.22083" stroke-dasharray="111.12 8.05"/>
<path d="M144.656 153.695L204.643 188.328" stroke="#44E9F8" stroke-width="3.22083" stroke-dasharray="111.12 8.05"/>
<path d="M144.656 149.948L204.643 184.581" stroke="#44E9F8" stroke-width="3.22083" stroke-dasharray="111.12 8.05"/>
<path d="M144.656 146.201L204.643 180.835" stroke="#44E9F8" stroke-width="3.22083" stroke-dasharray="111.12 8.05"/>
<path d="M144.656 142.455L204.643 177.088" stroke="#44E9F8" stroke-width="3.22083" stroke-dasharray="111.12 8.05"/>
<path d="M144.657 138.708L204.643 173.341" stroke="#44E9F8" stroke-width="3.22083" stroke-dasharray="111.12 8.05"/>
<path d="M215.744 143.954L157.399 110.751V81.8954L215.744 115.098V143.954ZM215.744 143.954L157.399 110.751V81.8954L215.744 115.098V143.954Z" fill="#88F7FF"/>
<path d="M172.907 98.0555V112.437L171.06 111.371V104.891L164.563 101.14V107.62L162.707 106.548V92.1665L164.563 93.238V99.5878L171.06 103.339V96.9892L172.907 98.0555ZM172.907 98.0555V112.437L171.06 111.371V104.891L164.563 101.14V107.62L162.707 106.548V92.1665L164.563 93.238V99.5878L171.06 103.339V96.9892L172.907 98.0555Z" fill="#0B246E"/>
<path d="M184.478 106.519L180.523 104.235V116.834L178.683 115.773V103.173L174.711 100.88V99.097L184.478 104.736V106.519ZM184.478 106.519L180.523 104.235V116.834L178.683 115.773V103.173L174.711 100.88V99.097L184.478 104.736V106.519Z" fill="#0B246E"/>
<path d="M199.37 113.334V127.716L197.757 126.785V116.549C197.757 116.395 197.76 116.234 197.769 116.066C197.778 115.897 197.789 115.726 197.8 115.552L193.654 121.943C193.509 122.186 193.287 122.221 192.986 122.048L192.726 121.897C192.425 121.723 192.206 121.433 192.067 121.026L187.842 109.773C187.878 110.168 187.895 110.529 187.895 110.856V121.091L186.272 120.155V105.773L187.643 106.563C187.805 106.657 187.93 106.748 188.02 106.837C188.11 106.925 188.195 107.076 188.276 107.289L192.439 118.307C192.52 118.527 192.595 118.754 192.665 118.988C192.735 119.222 192.801 119.453 192.864 119.683C192.986 119.36 193.128 119.061 193.29 118.787L197.375 112.543C197.45 112.419 197.532 112.365 197.622 112.38C197.712 112.395 197.838 112.449 197.999 112.543L199.37 113.334ZM199.37 113.334V127.716L197.757 126.785V116.549C197.757 116.395 197.76 116.234 197.769 116.066C197.778 115.897 197.789 115.726 197.8 115.552L193.654 121.943C193.509 122.186 193.287 122.221 192.986 122.048L192.726 121.897C192.425 121.723 192.206 121.433 192.067 121.026L187.842 109.773C187.878 110.168 187.895 110.529 187.895 110.856V121.091L186.272 120.155V105.773L187.643 106.563C187.805 106.657 187.93 106.748 188.02 106.837C188.11 106.925 188.195 107.076 188.276 107.289L192.439 118.307C192.52 118.527 192.595 118.754 192.665 118.988C192.735 119.222 192.801 119.453 192.864 119.683C192.986 119.36 193.128 119.061 193.29 118.787L197.375 112.543C197.45 112.419 197.532 112.365 197.622 112.38C197.712 112.395 197.838 112.449 197.999 112.543L199.37 113.334Z" fill="#0B246E"/>
<path d="M209.579 131.818V133.61L202.45 129.494V115.112L204.297 116.179V128.768L209.579 131.818ZM209.579 131.818V133.61L202.45 129.494V115.112L204.297 116.179V128.768L209.579 131.818Z" fill="#0B246E"/>
<path d="M120.815 157.896L75.6276 132.653V103.796L120.815 129.04V157.896ZM120.815 157.896L75.6276 132.653V103.796L120.815 129.04V157.896Z" fill="#0B246E"/>
<path d="M92.2844 131.622C92.3886 131.682 92.4777 131.78 92.5534 131.918L93.2825 133.26C92.773 133.661 92.1533 133.84 91.4219 133.798C90.6906 133.756 89.8101 133.439 88.7805 132.844C87.8783 132.324 87.0616 131.672 86.3302 130.889C85.5989 130.106 84.9747 129.241 84.4569 128.294C83.9391 127.348 83.539 126.342 83.2557 125.278C82.9725 124.213 82.8301 123.139 82.8301 122.058C82.8301 120.977 82.9792 120.071 83.2767 119.341C83.5742 118.612 83.993 118.078 84.5303 117.741C85.0683 117.404 85.7105 117.271 86.4599 117.343C87.2092 117.415 88.0372 117.712 88.9454 118.237C89.8296 118.748 90.6156 119.368 91.3043 120.1C91.9922 120.83 92.5909 121.621 93.0997 122.468L92.4927 123.11C92.4523 123.16 92.402 123.19 92.3414 123.202C92.2799 123.214 92.2012 123.191 92.1031 123.135C91.9929 123.071 91.8633 122.934 91.7164 122.722C91.5688 122.51 91.3755 122.256 91.1357 121.96C90.8959 121.665 90.5992 121.351 90.2462 121.021C89.8933 120.69 89.4542 120.373 88.9281 120.07C88.3092 119.712 87.742 119.51 87.2279 119.464C86.7124 119.416 86.2695 119.521 85.8964 119.777C85.5239 120.032 85.2339 120.442 85.0294 121.009C84.8241 121.574 84.7214 122.288 84.7214 123.15C84.7214 124.024 84.8278 124.863 85.0421 125.668C85.2557 126.473 85.5502 127.221 85.9263 127.912C86.3025 128.602 86.7453 129.218 87.2541 129.759C87.7629 130.3 88.3122 130.741 88.9019 131.082C89.2601 131.289 89.5831 131.449 89.8693 131.565C90.1556 131.68 90.4178 131.757 90.6584 131.795C90.8981 131.834 91.1252 131.837 91.3387 131.803C91.5531 131.77 91.7636 131.702 91.9719 131.602C92.0184 131.582 92.0678 131.572 92.1196 131.572C92.172 131.572 92.2267 131.589 92.2844 131.622ZM92.2844 131.622C92.3886 131.682 92.4777 131.78 92.5534 131.918L93.2825 133.26C92.773 133.661 92.1533 133.84 91.4219 133.798C90.6906 133.756 89.8101 133.439 88.7805 132.844C87.8783 132.324 87.0616 131.672 86.3302 130.889C85.5989 130.106 84.9747 129.241 84.4569 128.294C83.9391 127.348 83.539 126.342 83.2557 125.278C82.9725 124.213 82.8301 123.139 82.8301 122.058C82.8301 120.977 82.9792 120.071 83.2767 119.341C83.5742 118.612 83.993 118.078 84.5303 117.741C85.0683 117.404 85.7105 117.271 86.4599 117.343C87.2092 117.415 88.0372 117.712 88.9454 118.237C89.8296 118.748 90.6156 119.368 91.3043 120.1C91.9922 120.83 92.5909 121.621 93.0997 122.468L92.4927 123.11C92.4523 123.16 92.402 123.19 92.3414 123.202C92.2799 123.214 92.2012 123.191 92.1031 123.135C91.9929 123.071 91.8633 122.934 91.7164 122.722C91.5688 122.51 91.3755 122.256 91.1357 121.96C90.8959 121.665 90.5992 121.351 90.2462 121.021C89.8933 120.69 89.4542 120.373 88.9281 120.07C88.3092 119.712 87.742 119.51 87.2279 119.464C86.7124 119.416 86.2695 119.521 85.8964 119.777C85.5239 120.032 85.2339 120.442 85.0294 121.009C84.8241 121.574 84.7214 122.288 84.7214 123.15C84.7214 124.024 84.8278 124.863 85.0421 125.668C85.2557 126.473 85.5502 127.221 85.9263 127.912C86.3025 128.602 86.7453 129.218 87.2541 129.759C87.7629 130.3 88.3122 130.741 88.9019 131.082C89.2601 131.289 89.5831 131.449 89.8693 131.565C90.1556 131.68 90.4178 131.757 90.6584 131.795C90.8981 131.834 91.1252 131.837 91.3387 131.803C91.5531 131.77 91.7636 131.702 91.9719 131.602C92.0184 131.582 92.0678 131.572 92.1196 131.572C92.172 131.572 92.2267 131.589 92.2844 131.622Z" fill="#36E7F7"/>
<path d="M101.591 128.042C101.533 128.122 101.473 128.171 101.409 128.187C101.345 128.204 101.264 128.184 101.166 128.127C101.062 128.067 100.944 127.943 100.811 127.756C100.678 127.569 100.511 127.35 100.312 127.098C100.113 126.846 99.8736 126.585 99.5963 126.314C99.3191 126.044 98.9856 125.796 98.5982 125.573C98.2341 125.363 97.9149 125.233 97.6406 125.185C97.3656 125.136 97.1355 125.154 96.9505 125.237C96.7654 125.32 96.6253 125.464 96.5301 125.666C96.4342 125.867 96.387 126.119 96.387 126.42C96.387 126.807 96.4724 127.176 96.6425 127.529C96.8133 127.881 97.0381 128.228 97.3154 128.568C97.5926 128.909 97.9074 129.247 98.2603 129.584C98.6132 129.921 98.9744 130.268 99.3446 130.626C99.7147 130.983 100.076 131.357 100.429 131.747C100.781 132.138 101.097 132.556 101.375 133C101.652 133.444 101.877 133.92 102.047 134.429C102.218 134.938 102.302 135.49 102.302 136.085C102.302 136.719 102.208 137.258 102.02 137.704C101.832 138.15 101.559 138.476 101.201 138.683C100.842 138.891 100.402 138.961 99.8781 138.896C99.3543 138.831 98.7608 138.606 98.0962 138.222C97.6968 137.992 97.3094 137.723 96.9332 137.416C96.5571 137.109 96.2019 136.777 95.8669 136.419C95.5312 136.062 95.2173 135.684 94.9258 135.286C94.6335 134.886 94.372 134.477 94.1405 134.056L94.6695 133.34C94.7212 133.29 94.7834 133.26 94.8561 133.248C94.928 133.236 95.0104 133.256 95.1034 133.31C95.2248 133.379 95.3649 133.535 95.5237 133.773C95.6826 134.012 95.8797 134.287 96.1142 134.599C96.348 134.911 96.6282 135.235 96.955 135.57C97.2817 135.906 97.6796 136.209 98.1479 136.479C98.5293 136.7 98.871 136.838 99.1715 136.895C99.472 136.952 99.7252 136.931 99.9305 136.833C100.135 136.734 100.293 136.563 100.403 136.32C100.513 136.076 100.567 135.767 100.567 135.393C100.567 134.973 100.484 134.58 100.316 134.216C100.149 133.852 99.9253 133.501 99.6481 133.16C99.3708 132.82 99.0553 132.484 98.7031 132.154C98.3502 131.823 97.9883 131.482 97.6181 131.131C97.2479 130.781 96.8868 130.414 96.5346 130.03C96.1816 129.646 95.8662 129.229 95.5889 128.778C95.3117 128.327 95.0891 127.835 94.9213 127.301C94.7534 126.767 94.6695 126.179 94.6695 125.538C94.6695 125.024 94.7564 124.576 94.9295 124.196C95.1034 123.815 95.3559 123.535 95.6886 123.357C96.0205 123.179 96.4297 123.117 96.916 123.174C97.4016 123.231 97.9576 123.44 98.5818 123.801C99.2809 124.205 99.9246 124.704 100.511 125.3C101.098 125.897 101.608 126.56 102.042 127.291L101.591 128.042ZM101.591 128.042C101.533 128.122 101.473 128.171 101.409 128.187C101.345 128.204 101.264 128.184 101.166 128.127C101.062 128.067 100.944 127.943 100.811 127.756C100.678 127.569 100.511 127.35 100.312 127.098C100.113 126.846 99.8736 126.585 99.5963 126.314C99.3191 126.044 98.9856 125.796 98.5982 125.573C98.2341 125.363 97.9149 125.233 97.6406 125.185C97.3656 125.136 97.1355 125.154 96.9505 125.237C96.7654 125.32 96.6253 125.464 96.5301 125.666C96.4342 125.867 96.387 126.119 96.387 126.42C96.387 126.807 96.4724 127.176 96.6425 127.529C96.8133 127.881 97.0381 128.228 97.3154 128.568C97.5926 128.909 97.9074 129.247 98.2603 129.584C98.6132 129.921 98.9744 130.268 99.3446 130.626C99.7147 130.983 100.076 131.357 100.429 131.747C100.781 132.138 101.097 132.556 101.375 133C101.652 133.444 101.877 133.92 102.047 134.429C102.218 134.938 102.302 135.49 102.302 136.085C102.302 136.719 102.208 137.258 102.02 137.704C101.832 138.15 101.559 138.476 101.201 138.683C100.842 138.891 100.402 138.961 99.8781 138.896C99.3543 138.831 98.7608 138.606 98.0962 138.222C97.6968 137.992 97.3094 137.723 96.9332 137.416C96.5571 137.109 96.2019 136.777 95.8669 136.419C95.5312 136.062 95.2173 135.684 94.9258 135.286C94.6335 134.886 94.372 134.477 94.1405 134.056L94.6695 133.34C94.7212 133.29 94.7834 133.26 94.8561 133.248C94.928 133.236 95.0104 133.256 95.1034 133.31C95.2248 133.379 95.3649 133.535 95.5237 133.773C95.6826 134.012 95.8797 134.287 96.1142 134.599C96.348 134.911 96.6282 135.235 96.955 135.57C97.2817 135.906 97.6796 136.209 98.1479 136.479C98.5293 136.7 98.871 136.838 99.1715 136.895C99.472 136.952 99.7252 136.931 99.9305 136.833C100.135 136.734 100.293 136.563 100.403 136.32C100.513 136.076 100.567 135.767 100.567 135.393C100.567 134.973 100.484 134.58 100.316 134.216C100.149 133.852 99.9253 133.501 99.6481 133.16C99.3708 132.82 99.0553 132.484 98.7031 132.154C98.3502 131.823 97.9883 131.482 97.6181 131.131C97.2479 130.781 96.8868 130.414 96.5346 130.03C96.1816 129.646 95.8662 129.229 95.5889 128.778C95.3117 128.327 95.0891 127.835 94.9213 127.301C94.7534 126.767 94.6695 126.179 94.6695 125.538C94.6695 125.024 94.7564 124.576 94.9295 124.196C95.1034 123.815 95.3559 123.535 95.6886 123.357C96.0205 123.179 96.4297 123.117 96.916 123.174C97.4016 123.231 97.9576 123.44 98.5818 123.801C99.2809 124.205 99.9246 124.704 100.511 125.3C101.098 125.897 101.608 126.56 102.042 127.291L101.591 128.042Z" fill="#36E7F7"/>
<path d="M111.028 133.49C110.97 133.571 110.91 133.619 110.846 133.636C110.782 133.652 110.701 133.632 110.603 133.575C110.498 133.515 110.38 133.391 110.247 133.205C110.114 133.018 109.948 132.798 109.748 132.546C109.549 132.294 109.311 132.033 109.033 131.762C108.756 131.492 108.423 131.245 108.035 131.021C107.671 130.812 107.352 130.681 107.078 130.633C106.803 130.584 106.573 130.603 106.388 130.686C106.202 130.77 106.062 130.913 105.967 131.114C105.871 131.317 105.824 131.567 105.824 131.867C105.824 132.255 105.909 132.625 106.08 132.977C106.25 133.329 106.474 133.676 106.752 134.016C107.029 134.357 107.344 134.695 107.697 135.032C108.05 135.37 108.412 135.717 108.782 136.074C109.152 136.431 109.513 136.805 109.866 137.196C110.218 137.586 110.534 138.004 110.811 138.448C111.088 138.892 111.312 139.369 111.483 139.878C111.654 140.386 111.739 140.939 111.739 141.533C111.739 142.167 111.645 142.706 111.458 143.152C111.269 143.598 110.996 143.925 110.638 144.132C110.28 144.339 109.838 144.41 109.314 144.344C108.791 144.279 108.197 144.054 107.533 143.671C107.133 143.44 106.746 143.172 106.37 142.864C105.994 142.557 105.638 142.225 105.303 141.868C104.968 141.51 104.654 141.133 104.362 140.734C104.07 140.335 103.808 139.925 103.577 139.504L104.107 138.788C104.158 138.738 104.22 138.708 104.293 138.696C104.365 138.684 104.448 138.704 104.54 138.758C104.662 138.829 104.802 138.983 104.961 139.221C105.12 139.46 105.316 139.735 105.551 140.048C105.784 140.359 106.065 140.683 106.392 141.019C106.719 141.355 107.117 141.657 107.585 141.928C107.966 142.148 108.307 142.287 108.608 142.344C108.908 142.4 109.162 142.38 109.367 142.282C109.571 142.183 109.73 142.012 109.84 141.768C109.949 141.525 110.005 141.215 110.005 140.841C110.005 140.42 109.921 140.028 109.754 139.665C109.586 139.301 109.362 138.948 109.085 138.608C108.808 138.267 108.492 137.932 108.139 137.602C107.787 137.271 107.425 136.931 107.055 136.58C106.685 136.229 106.323 135.862 105.971 135.478C105.618 135.094 105.303 134.677 105.026 134.226C104.749 133.775 104.525 133.284 104.358 132.749C104.19 132.215 104.107 131.628 104.107 130.987C104.107 130.473 104.194 130.025 104.367 129.645C104.54 129.264 104.793 128.984 105.126 128.806C105.458 128.627 105.867 128.566 106.353 128.623C106.839 128.68 107.394 128.889 108.018 129.249C108.717 129.653 109.362 130.153 109.948 130.749C110.535 131.345 111.045 132.008 111.479 132.74L111.028 133.49ZM111.028 133.49C110.97 133.571 110.91 133.619 110.846 133.636C110.782 133.652 110.701 133.632 110.603 133.575C110.498 133.515 110.38 133.391 110.247 133.205C110.114 133.018 109.948 132.798 109.748 132.546C109.549 132.294 109.311 132.033 109.033 131.762C108.756 131.492 108.423 131.245 108.035 131.021C107.671 130.812 107.352 130.681 107.078 130.633C106.803 130.584 106.573 130.603 106.388 130.686C106.202 130.77 106.062 130.913 105.967 131.114C105.871 131.317 105.824 131.567 105.824 131.867C105.824 132.255 105.909 132.625 106.08 132.977C106.25 133.329 106.474 133.676 106.752 134.016C107.029 134.357 107.344 134.695 107.697 135.032C108.05 135.37 108.412 135.717 108.782 136.074C109.152 136.431 109.513 136.805 109.866 137.196C110.218 137.586 110.534 138.004 110.811 138.448C111.088 138.892 111.312 139.369 111.483 139.878C111.654 140.386 111.739 140.939 111.739 141.533C111.739 142.167 111.645 142.706 111.458 143.152C111.269 143.598 110.996 143.925 110.638 144.132C110.28 144.339 109.838 144.41 109.314 144.344C108.791 144.279 108.197 144.054 107.533 143.671C107.133 143.44 106.746 143.172 106.37 142.864C105.994 142.557 105.638 142.225 105.303 141.868C104.968 141.51 104.654 141.133 104.362 140.734C104.07 140.335 103.808 139.925 103.577 139.504L104.107 138.788C104.158 138.738 104.22 138.708 104.293 138.696C104.365 138.684 104.448 138.704 104.54 138.758C104.662 138.829 104.802 138.983 104.961 139.221C105.12 139.46 105.316 139.735 105.551 140.048C105.784 140.359 106.065 140.683 106.392 141.019C106.719 141.355 107.117 141.657 107.585 141.928C107.966 142.148 108.307 142.287 108.608 142.344C108.908 142.4 109.162 142.38 109.367 142.282C109.571 142.183 109.73 142.012 109.84 141.768C109.949 141.525 110.005 141.215 110.005 140.841C110.005 140.42 109.921 140.028 109.754 139.665C109.586 139.301 109.362 138.948 109.085 138.608C108.808 138.267 108.492 137.932 108.139 137.602C107.787 137.271 107.425 136.931 107.055 136.58C106.685 136.229 106.323 135.862 105.971 135.478C105.618 135.094 105.303 134.677 105.026 134.226C104.749 133.775 104.525 133.284 104.358 132.749C104.19 132.215 104.107 131.628 104.107 130.987C104.107 130.473 104.194 130.025 104.367 129.645C104.54 129.264 104.793 128.984 105.126 128.806C105.458 128.627 105.867 128.566 106.353 128.623C106.839 128.68 107.394 128.889 108.018 129.249C108.717 129.653 109.362 130.153 109.948 130.749C110.535 131.345 111.045 132.008 111.479 132.74L111.028 133.49Z" fill="#36E7F7"/>
<path d="M271.599 231.545L226.411 206.301V177.445L271.599 202.689V231.545ZM271.599 231.545L226.411 206.301V177.445L271.599 202.689V231.545Z" fill="#4661AD"/>
<path d="M237.184 190.209C237.982 190.67 238.675 191.176 239.265 191.731C239.855 192.285 240.343 192.869 240.731 193.483C241.118 194.098 241.406 194.736 241.594 195.399C241.782 196.061 241.876 196.73 241.876 197.405C241.876 198.079 241.775 198.639 241.572 199.087C241.37 199.534 241.072 199.848 240.678 200.028C240.286 200.209 239.795 200.242 239.208 200.126C238.622 200.011 237.947 199.733 237.184 199.292L235.258 198.18V203.479L233.41 202.412V188.03L237.184 190.209ZM237.184 190.209C237.982 190.67 238.675 191.176 239.265 191.731C239.855 192.285 240.343 192.869 240.731 193.483C241.118 194.098 241.406 194.736 241.594 195.399C241.782 196.061 241.876 196.73 241.876 197.405C241.876 198.079 241.775 198.639 241.572 199.087C241.37 199.534 241.072 199.848 240.678 200.028C240.286 200.209 239.795 200.242 239.208 200.126C238.622 200.011 237.947 199.733 237.184 199.292L235.258 198.18V203.479L233.41 202.412V188.03L237.184 190.209ZM237.184 197.61C237.652 197.88 238.064 198.048 238.419 198.113C238.775 198.178 239.073 198.151 239.313 198.032C239.553 197.914 239.734 197.711 239.855 197.424C239.977 197.137 240.037 196.777 240.037 196.343C240.037 195.468 239.801 194.644 239.33 193.871C238.858 193.099 238.143 192.434 237.184 191.88L235.258 190.768V196.498L237.184 197.61ZM237.184 197.61C237.652 197.88 238.064 198.048 238.419 198.113C238.775 198.178 239.073 198.151 239.313 198.032C239.553 197.914 239.734 197.711 239.855 197.424C239.977 197.137 240.037 196.777 240.037 196.343C240.037 195.468 239.801 194.644 239.33 193.871C238.858 193.099 238.143 192.434 237.184 191.88L235.258 190.768V196.498L237.184 197.61Z" fill="#88F7FF"/>
<path d="M254.106 199.978V214.36L252.258 213.294V206.814L245.761 203.063V209.543L243.905 208.471V194.09L245.761 195.161V201.51L252.258 205.261V198.911L254.106 199.978ZM254.106 199.978V214.36L252.258 213.294V206.814L245.761 203.063V209.543L243.905 208.471V194.09L245.761 195.161V201.51L252.258 205.261V198.911L254.106 199.978Z" fill="#88F7FF"/>
<path d="M260.958 203.935C261.756 204.396 262.449 204.902 263.039 205.457C263.629 206.011 264.118 206.595 264.506 207.21C264.893 207.824 265.18 208.462 265.368 209.125C265.556 209.787 265.65 210.456 265.65 211.13C265.65 211.804 265.549 212.366 265.347 212.813C265.145 213.26 264.847 213.574 264.453 213.754C264.061 213.935 263.57 213.968 262.983 213.852C262.396 213.738 261.721 213.459 260.958 213.018L259.032 211.906V217.205L257.185 216.138V201.756L260.958 203.935ZM260.958 203.935C261.756 204.396 262.449 204.902 263.039 205.457C263.629 206.011 264.118 206.595 264.506 207.21C264.893 207.824 265.18 208.462 265.368 209.125C265.556 209.787 265.65 210.456 265.65 211.13C265.65 211.804 265.549 212.366 265.347 212.813C265.145 213.26 264.847 213.574 264.453 213.754C264.061 213.935 263.57 213.968 262.983 213.852C262.396 213.738 261.721 213.459 260.958 213.018L259.032 211.906V217.205L257.185 216.138V201.756L260.958 203.935ZM260.958 211.336C261.426 211.607 261.838 211.774 262.193 211.839C262.549 211.904 262.847 211.878 263.087 211.759C263.327 211.641 263.508 211.437 263.629 211.15C263.751 210.863 263.812 210.504 263.812 210.069C263.812 209.194 263.576 208.37 263.104 207.598C262.633 206.825 261.917 206.16 260.958 205.607L259.032 204.495V210.224L260.958 211.336ZM260.958 211.336C261.426 211.607 261.838 211.774 262.193 211.839C262.549 211.904 262.847 211.878 263.087 211.759C263.327 211.641 263.508 211.437 263.629 211.15C263.751 210.863 263.812 210.504 263.812 210.069C263.812 209.194 263.576 208.37 263.104 207.598C262.633 206.825 261.917 206.16 260.958 205.607L259.032 204.495V210.224L260.958 211.336Z" fill="#88F7FF"/>
<path d="M304.529 138.585L273.47 121.199V92.3426L304.529 109.729V138.585ZM304.529 138.585L273.47 121.199V92.3426L304.529 109.729V138.585Z" fill="#0B246E"/>
<path d="M285.959 115.873C285.959 116.674 285.873 117.346 285.699 117.887C285.526 118.428 285.272 118.824 284.94 119.076C284.607 119.328 284.194 119.429 283.699 119.381C283.205 119.333 282.637 119.124 281.995 118.753C281.417 118.419 280.822 117.982 280.209 117.441L280.313 116.239C280.324 116.125 280.364 116.049 280.43 116.011C280.497 115.973 280.595 115.991 280.729 116.069C280.827 116.125 280.962 116.231 281.132 116.386C281.302 116.541 281.527 116.699 281.804 116.859C282.174 117.073 282.503 117.199 282.789 117.238C283.075 117.276 283.317 117.217 283.513 117.06C283.71 116.903 283.859 116.643 283.96 116.281C284.061 115.919 284.112 115.444 284.112 114.857V105.433L285.959 106.499V115.873ZM285.959 115.873C285.959 116.674 285.873 117.346 285.699 117.887C285.526 118.428 285.272 118.824 284.94 119.076C284.607 119.328 284.194 119.429 283.699 119.381C283.205 119.333 282.637 119.124 281.995 118.753C281.417 118.419 280.822 117.982 280.209 117.441L280.313 116.239C280.324 116.125 280.364 116.049 280.43 116.011C280.497 115.973 280.595 115.991 280.729 116.069C280.827 116.125 280.962 116.231 281.132 116.386C281.302 116.541 281.527 116.699 281.804 116.859C282.174 117.073 282.503 117.199 282.789 117.238C283.075 117.276 283.317 117.217 283.513 117.06C283.71 116.903 283.859 116.643 283.96 116.281C284.061 115.919 284.112 115.444 284.112 114.857V105.433L285.959 106.499V115.873Z" fill="white"/>
<path d="M295.353 114.266C295.295 114.346 295.234 114.395 295.171 114.411C295.107 114.428 295.026 114.408 294.928 114.351C294.824 114.291 294.705 114.168 294.573 113.981C294.439 113.794 294.273 113.574 294.074 113.322C293.874 113.071 293.635 112.809 293.358 112.539C293.081 112.268 292.747 112.02 292.36 111.797C291.996 111.587 291.676 111.457 291.402 111.409C291.127 111.361 290.897 111.379 290.712 111.462C290.527 111.545 290.387 111.687 290.292 111.89C290.196 112.091 290.149 112.343 290.149 112.644C290.149 113.031 290.233 113.4 290.404 113.753C290.575 114.105 290.8 114.452 291.077 114.792C291.354 115.133 291.669 115.471 292.022 115.808C292.375 116.145 292.736 116.493 293.106 116.85C293.476 117.208 293.838 117.582 294.19 117.972C294.543 118.362 294.858 118.78 295.135 119.223C295.413 119.668 295.638 120.144 295.808 120.653C295.978 121.163 296.064 121.714 296.064 122.308C296.064 122.942 295.969 123.483 295.782 123.928C295.594 124.374 295.32 124.7 294.962 124.907C294.604 125.115 294.164 125.185 293.64 125.12C293.116 125.055 292.522 124.83 291.858 124.446C291.458 124.215 291.071 123.947 290.695 123.64C290.319 123.333 289.964 123.002 289.629 122.644C289.293 122.287 288.979 121.908 288.687 121.51C288.395 121.11 288.134 120.7 287.902 120.28L288.431 119.564C288.483 119.514 288.545 119.483 288.618 119.471C288.69 119.459 288.772 119.48 288.865 119.534C288.986 119.604 289.127 119.759 289.285 119.997C289.444 120.236 289.641 120.511 289.876 120.824C290.11 121.136 290.39 121.459 290.717 121.795C291.043 122.131 291.441 122.434 291.91 122.704C292.291 122.924 292.633 123.063 292.933 123.12C293.234 123.176 293.487 123.155 293.692 123.057C293.897 122.958 294.054 122.787 294.164 122.544C294.274 122.3 294.329 121.991 294.329 121.617C294.329 121.197 294.245 120.804 294.078 120.44C293.91 120.076 293.687 119.725 293.41 119.384C293.132 119.044 292.817 118.708 292.465 118.377C292.112 118.047 291.75 117.706 291.38 117.355C291.01 117.005 290.648 116.637 290.296 116.254C289.943 115.869 289.628 115.453 289.351 115.002C289.073 114.551 288.851 114.059 288.683 113.525C288.515 112.99 288.431 112.403 288.431 111.762C288.431 111.248 288.518 110.801 288.691 110.42C288.865 110.04 289.118 109.759 289.45 109.581C289.782 109.403 290.191 109.342 290.678 109.399C291.163 109.456 291.719 109.664 292.343 110.025C293.043 110.428 293.686 110.928 294.273 111.524C294.86 112.12 295.37 112.784 295.804 113.515L295.353 114.266ZM295.353 114.266C295.295 114.346 295.234 114.395 295.171 114.411C295.107 114.428 295.026 114.408 294.928 114.351C294.824 114.291 294.705 114.168 294.573 113.981C294.439 113.794 294.273 113.574 294.074 113.322C293.874 113.071 293.635 112.809 293.358 112.539C293.081 112.268 292.747 112.02 292.36 111.797C291.996 111.587 291.676 111.457 291.402 111.409C291.127 111.361 290.897 111.379 290.712 111.462C290.527 111.545 290.387 111.687 290.292 111.89C290.196 112.091 290.149 112.343 290.149 112.644C290.149 113.031 290.233 113.4 290.404 113.753C290.575 114.105 290.8 114.452 291.077 114.792C291.354 115.133 291.669 115.471 292.022 115.808C292.375 116.145 292.736 116.493 293.106 116.85C293.476 117.208 293.838 117.582 294.19 117.972C294.543 118.362 294.858 118.78 295.135 119.223C295.413 119.668 295.638 120.144 295.808 120.653C295.978 121.163 296.064 121.714 296.064 122.308C296.064 122.942 295.969 123.483 295.782 123.928C295.594 124.374 295.32 124.7 294.962 124.907C294.604 125.115 294.164 125.185 293.64 125.12C293.116 125.055 292.522 124.83 291.858 124.446C291.458 124.215 291.071 123.947 290.695 123.64C290.319 123.333 289.964 123.002 289.629 122.644C289.293 122.287 288.979 121.908 288.687 121.51C288.395 121.11 288.134 120.7 287.902 120.28L288.431 119.564C288.483 119.514 288.545 119.483 288.618 119.471C288.69 119.459 288.772 119.48 288.865 119.534C288.986 119.604 289.127 119.759 289.285 119.997C289.444 120.236 289.641 120.511 289.876 120.824C290.11 121.136 290.39 121.459 290.717 121.795C291.043 122.131 291.441 122.434 291.91 122.704C292.291 122.924 292.633 123.063 292.933 123.12C293.234 123.176 293.487 123.155 293.692 123.057C293.897 122.958 294.054 122.787 294.164 122.544C294.274 122.3 294.329 121.991 294.329 121.617C294.329 121.197 294.245 120.804 294.078 120.44C293.91 120.076 293.687 119.725 293.41 119.384C293.132 119.044 292.817 118.708 292.465 118.377C292.112 118.047 291.75 117.706 291.38 117.355C291.01 117.005 290.648 116.637 290.296 116.254C289.943 115.869 289.628 115.453 289.351 115.002C289.073 114.551 288.851 114.059 288.683 113.525C288.515 112.99 288.431 112.403 288.431 111.762C288.431 111.248 288.518 110.801 288.691 110.42C288.865 110.04 289.118 109.759 289.45 109.581C289.782 109.403 290.191 109.342 290.678 109.399C291.163 109.456 291.719 109.664 292.343 110.025C293.043 110.428 293.686 110.928 294.273 111.524C294.86 112.12 295.37 112.784 295.804 113.515L295.353 114.266Z" fill="white"/>
<path d="M51.4832 358.713C51.4832 360.487 50.2385 362.644 48.7024 363.531C47.1663 364.418 45.9209 363.699 45.9209 361.925C45.9209 360.151 47.1663 357.995 48.7024 357.108C50.2385 356.22 51.4832 356.94 51.4832 358.713Z" fill="#0B246E"/>
<path d="M49.1993 357.292C49.7425 358.98 49.2173 361.415 48.0266 362.729C46.8359 364.043 45.4301 363.741 44.8869 362.052C44.3436 360.364 44.8689 357.929 46.0596 356.615C47.2503 355.3 48.656 355.604 49.1993 357.292Z" fill="#0B246E"/>
<path d="M100.098 309.131C100.098 309.131 100.387 318.493 101.683 321.806C102.979 325.119 106.148 324.832 108.596 324.543C111.045 324.255 117.238 319.808 120.263 316.918C123.289 314.028 129.626 314.582 134.668 307.463C139.709 300.344 134.668 297.319 133.083 297.175C131.499 297.031 123.175 303.688 116.614 301.061L100.098 309.131Z" fill="#0B246E"/>
<path d="M37.4377 261.931C37.4377 261.931 91.0231 244.294 101.204 251.576C110.73 258.391 109.183 278.882 116.614 301.061C116.806 301.634 116.784 302.255 116.54 302.809C115.396 305.407 111.201 312.477 99.9626 310.638C99.9626 310.638 93.7319 294.414 89.4982 277.478C89.4982 277.478 47.7568 304.376 38.2425 297.403C28.7283 290.43 37.4377 261.931 37.4377 261.931Z" fill="#425CA3"/>
<path d="M15.5596 338.563L50.7796 332.359L47.5777 358.575L50.7796 359.375L56.9833 332.359L89.8017 345.868L91.6031 343.934L60.3853 329.158L83.9989 318.351L81.3972 317.151L55.2284 326.084L41.374 317.151L37.8349 317.951L50.3794 328.357L16.3598 335.962L15.5596 338.563Z" fill="#0B246E"/>
<path d="M20.0203 334.964C20.0203 336.738 18.7749 338.894 17.2388 339.782C15.7026 340.669 14.4572 339.949 14.4572 338.176C14.4572 336.402 15.7026 334.246 17.2388 333.359C18.7749 332.472 20.0203 333.19 20.0203 334.964Z" fill="#0B246E"/>
<path d="M21.2739 335.688C21.2739 337.462 20.0285 339.618 18.4924 340.505C16.9563 341.393 15.7117 340.673 15.7117 338.9C15.7117 337.126 16.9563 334.97 18.4924 334.083C20.0285 333.196 21.2739 333.914 21.2739 335.688Z" fill="#0B246E"/>
<path d="M92.8268 343.03C92.8268 344.804 91.5821 346.959 90.046 347.847C88.5099 348.734 87.2645 348.014 87.2645 346.241C87.2645 344.467 88.5099 342.311 90.046 341.424C91.5821 340.537 92.8268 341.256 92.8268 343.03Z" fill="#0B246E"/>
<path d="M91.2771 342.007C91.2771 343.781 90.0325 345.937 88.4964 346.824C86.9602 347.712 85.7149 346.992 85.7149 345.219C85.7149 343.445 86.9602 341.289 88.4964 340.402C90.0325 339.515 91.2771 340.233 91.2771 342.007Z" fill="#0B246E"/>
<path d="M57.8907 314.166H51.5701V329.627H57.8907V314.166Z" fill="#0B246E"/>
<path d="M126.175 317.144C126.175 317.144 126.463 326.506 127.759 329.819C129.055 333.132 132.224 332.844 134.673 332.556C137.122 332.267 143.315 327.822 146.34 324.931C149.365 322.041 155.702 322.595 160.744 315.476C165.785 308.358 160.744 305.333 159.16 305.189C157.576 305.045 149.668 311.019 143.107 308.392L126.175 317.144Z" fill="#0B246E"/>
<path d="M63.6501 268.437C63.6501 268.437 117.235 250.799 127.416 258.082C137.06 264.98 135.355 285.898 143.107 308.392C143.107 308.392 139.873 319.385 126.175 317.144C126.175 317.144 119.944 300.92 115.711 283.984C115.711 283.984 73.9691 310.882 64.4548 303.909C54.9406 296.936 63.6501 268.437 63.6501 268.437Z" fill="#4661AD"/>
<path d="M107.475 291.34C105.589 301.545 88.2019 314.013 57.9626 318.547C56.9076 318.71 46.8568 320.686 38.0057 318.952C43.565 308.291 58.2369 290.6 53.6412 273.172C64.4751 274.856 109.129 282.373 107.475 291.34Z" fill="#36E7F7"/>
<path d="M53.5813 275.458L60.0068 282.067C61.5204 291.183 67.0257 300.075 75.431 300.746L118.476 286.035V271.069L53.5813 275.458Z" fill="#4661AD"/>
<path d="M68.1131 208.611L45.7936 197.308C43.4969 196.145 40.9589 195.509 38.3842 195.542C33.6716 195.603 26.828 197.176 24.1484 205.217C19.8855 218.006 33.6896 269.973 33.6896 269.973C33.6896 269.973 47.556 287.126 58.5179 286.314C69.4799 285.502 85.2511 276.266 85.2511 268.552C85.2511 263.049 80.9859 237.149 78.5408 222.755C77.5045 216.652 73.6357 211.408 68.1131 208.611Z" fill="#0B246E"/>
<path d="M81.3541 178.531C81.4746 178.546 84.1104 179.528 85.5042 180.049C85.9467 180.214 86.1268 180.739 85.8831 181.144L84.7079 183.097C84.3066 183.764 83.5494 184.133 82.7759 184.038L79.5592 183.643" stroke="#0B246E" stroke-width="1.124" stroke-miterlimit="10"/>
<path d="M50.1155 194.505L54.2198 179.948L85.0287 166.815L83.6486 178.056C83.5697 178.699 83.3725 179.321 83.0669 179.891L82.337 181.255C81.9364 182.003 81.7469 182.845 81.7871 183.693L81.8478 184.969C81.8945 185.954 81.6589 186.932 81.1681 187.787L77.8241 193.619C76.7577 195.478 74.5888 196.407 72.5068 195.895L68.4878 194.908L65.6546 203.829L50.1155 194.505Z" fill="#FF8B91"/>
<path d="M52.5417 187.903L57.4638 189.547C59.9702 190.384 62.7243 189.996 64.9013 188.498L72.4686 183.293L72.2659 184.944L73.3863 184.87C74.3917 184.804 75.277 184.185 75.6845 183.264L79.3883 174.89C79.3883 174.89 86.818 175.171 90.0999 166.427C90.0999 166.427 82.9998 157.46 71.2971 156.864C59.5945 156.268 54.1657 165.38 54.1657 165.38C54.1657 165.38 51.7175 164.764 50.1966 167.731C48.9675 170.129 50.243 181.483 50.7777 185.754C50.9029 186.752 51.5881 187.584 52.5417 187.903Z" fill="#0B246E"/>
<path d="M71.6347 186.992L73.1309 182.37C73.1309 182.37 72.4592 179.944 70.1187 180.586C67.7781 181.227 68.0198 187.153 69.2735 187.469C70.5273 187.784 71.6347 186.992 71.6347 186.992Z" fill="#FF8B91"/>
<path d="M73.1308 182.37L85.1903 183.128L86.1783 181.322L72.3936 181.125L73.1308 182.37Z" fill="#36E7F7"/>
<path d="M61.9731 293.902C63.6321 310.946 46.3623 323.883 30.6278 317.126C15.9604 310.826 5.20753 296.84 2.01838 272.678C-1.54244 245.777 3.26602 228.755 6.79611 220.477C8.52032 216.46 12.7503 214.117 17.0717 214.715C50.8515 219.422 59.2912 274.92 59.2912 274.92C59.2912 274.92 60.9854 283.752 61.9731 293.902Z" fill="#36E7F7"/>
<path d="M128.613 232.129C128.613 232.129 133.213 224.351 134.554 223.718C137.929 222.124 137.069 224.349 139.712 223.961C141.656 223.676 143.134 221.496 144.667 221.194C145.245 221.08 148.858 221.471 148.715 222.596C148.577 223.685 143.936 223.319 147.684 224.541C151.227 224.99 150.278 227.034 150.278 227.034C153.778 226.915 155.998 229.32 154.585 230.195C152.836 228.407 148.616 231.571 146.96 233.402C145.308 235.229 141.222 236.628 140.281 236.563C139.34 236.498 132.667 237.295 132.667 237.295L128.613 232.129Z" fill="#FF8B91"/>
<path d="M74.8715 210.901C74.8715 210.901 65.1624 207.159 59.6533 214.639C53.5451 222.933 59.8556 230.658 59.8556 230.658L94.19 254.234C98.1302 256.94 103.255 257.207 107.456 254.927L136.677 237.106C136.677 237.106 135.944 230.121 130.765 228.095C129.689 227.675 105.328 234.179 105.328 234.179C103.684 234.741 101.864 234.385 100.553 233.244L74.8715 210.901Z" fill="#0B246E"/>
<path d="M87.0124 214.792C87.0124 214.792 90.8001 206.63 92.0276 205.798C93.255 204.966 103.61 204.269 104.547 204.077C105.484 203.885 107.444 205.857 107.444 205.857C107.444 205.857 110.723 205.86 111.358 205.994C111.992 206.128 115.416 207.788 114.372 208.742C113.718 209.34 111.999 208.41 109.831 208.554C107.724 208.694 104.417 209.928 103.648 210.92C100.567 214.898 110.261 211.53 110.331 212.895C110.476 215.755 100.026 217.928 99.0836 217.963C98.1409 217.998 91.5902 219.498 91.5902 219.498L87.0124 214.792Z" fill="#FF8B91"/>
<path d="M61.4503 218.583L87.8827 211.546C93.3447 211.367 94.4037 219.144 94.4037 219.144L76.4637 232.762L61.4503 218.583Z" fill="#0B246E"/>
<path d="M85.251 315.84C85.251 317.613 84.0064 319.769 82.4703 320.656C80.9341 321.544 79.6888 320.825 79.6888 319.051C79.6888 317.278 80.9341 315.121 82.4703 314.234C84.0064 313.347 85.251 314.066 85.251 315.84Z" fill="#0B246E"/>
<path d="M83.9727 315.102C83.9727 316.875 82.7273 319.031 81.1912 319.918C79.655 320.805 78.4104 320.086 78.4104 318.312C78.4104 316.539 79.655 314.383 81.1912 313.496C82.7273 312.609 83.9727 313.328 83.9727 315.102Z" fill="#0B246E"/>
<path d="M107.475 291.34C74.5768 310.029 64.7576 296.409 62.084 289.863C61.3728 288.123 61.1675 286.883 61.1675 286.883C61.1675 286.883 54.4895 252.258 45.5477 236.286C38.0057 222.814 27.9475 213.854 12.2722 213.38" stroke="white" stroke-width="5.99464" stroke-miterlimit="10" stroke-linecap="round"/>
<path d="M49.8009 193.024L45.7935 197.308L68.113 208.611L66.5544 200.382L49.8009 193.024Z" fill="#4661AD"/>
</svg>
