<svg width="168" height="44" viewBox="0 0 168 44" fill="none" xmlns="http://www.w3.org/2000/svg">
<circle cx="19" cy="22" r="19" fill="white"/>
<path fill-rule="evenodd" clip-rule="evenodd" d="M22.6027 5.38839C19.2687 4.6665 15.9517 4.97687 12.9838 6.10396C13.3123 6.30697 13.6402 6.50688 13.9667 6.70372C17.1527 8.62449 19.5446 7.96593 22.8384 7.05857L23.3215 6.92588C24.0878 6.71622 24.8403 6.51468 25.5842 6.32581C24.6377 5.92954 23.6418 5.61332 22.6027 5.38839ZM12.0093 6.50867C11.178 6.88464 10.3788 7.32703 9.61956 7.82967C10.5084 8.40491 11.4 8.95873 12.2854 9.49255C14.4164 10.7772 16.2535 11.2305 18.107 11.211C19.9851 11.191 21.9131 10.6872 24.181 10.067C26.0579 9.55344 27.8539 9.08249 29.6471 8.74241C28.7767 8.04293 27.8314 7.42512 26.8202 6.90266C25.7485 7.15878 24.6624 7.44674 23.5466 7.7519L23.0635 7.88458C19.5638 8.84862 17.0223 9.54827 13.5236 7.43911C13.0218 7.13655 12.5162 6.82634 12.0093 6.50867ZM8.86144 8.36092C8.07929 8.94152 7.34604 9.58952 6.67125 10.2989C7.8266 11.0695 9.06136 11.8526 10.3825 12.6491C16.1015 16.0968 20.5949 14.8677 25.1527 13.6209C27.6243 12.9446 30.1101 12.2648 32.7511 12.0012C32.0846 11.0849 31.3266 10.2339 30.4865 9.46347C28.4855 9.80241 26.4966 10.321 24.4061 10.893C22.0798 11.5293 20.0989 12.046 18.1138 12.0672C16.1046 12.0884 14.1237 11.6032 11.8424 10.2279C10.8525 9.63124 9.85487 9.0094 8.86144 8.36092ZM2.69458 17.2029C2.57879 17.5977 2.47567 17.9993 2.38716 18.4079C2.25821 19.0033 2.16287 19.598 2.09855 20.1905C3.00445 20.7729 3.9175 21.3399 4.83412 21.8925C5.76551 22.454 6.66896 22.9454 7.57779 23.3776C8.48628 23.8097 9.40713 24.1865 10.3736 24.5191L10.6088 24.6L10.6555 24.8464C10.8811 26.0327 11.2693 27.1504 11.8271 28.1992C12.3855 29.249 13.1135 30.2282 14.0183 31.1358C14.5981 31.7176 15.2214 32.2433 15.8728 32.7313C16.5234 33.2187 17.2128 33.6755 17.9207 34.1168C18.291 34.3475 18.6693 34.5704 19.0707 34.8067C20.7364 35.7868 22.7877 36.9941 23.7717 38.325L23.7746 38.3291C24.7033 38.0569 25.6038 37.7063 26.4672 37.2839C23.3168 31.9152 13.4177 31.6084 13.2446 22.4337C11.148 21.8842 9.13152 21.182 6.29397 19.4714C5.02705 18.7076 3.82931 17.9519 2.69458 17.2029ZM2.0219 21.1607C1.97237 22.1373 2.00728 23.1042 2.12226 24.0532C2.4651 24.2646 2.80859 24.4738 3.15289 24.6814C3.90937 25.1374 4.6558 25.5543 5.40449 25.9358C6.15935 26.3204 6.90771 26.6659 7.66143 26.976L7.84786 27.0526L7.90812 27.2428C8.2732 28.3949 8.7731 29.4918 9.40989 30.5283C10.0413 31.5579 10.8082 32.5278 11.7118 33.4345C12.3786 34.1038 13.0947 34.7122 13.8462 35.2795C14.6002 35.8487 15.388 36.3749 16.1973 36.8796C16.4487 37.0363 16.7516 37.214 17.0999 37.4185C17.8668 37.8683 18.8413 38.44 19.6612 39C20.752 38.9588 21.8245 38.8113 22.867 38.5673C21.9083 37.4701 20.1148 36.4145 18.6378 35.5453C18.1994 35.2874 17.7872 35.0446 17.4676 34.8453C16.7514 34.3989 16.045 33.93 15.3593 33.4163C14.6743 32.9031 14.0193 32.3509 13.4106 31.74C12.4426 30.7689 11.6644 29.7226 11.0684 28.602C10.5102 27.5525 10.11 26.435 9.86202 25.2503C8.95434 24.9289 8.07978 24.566 7.21172 24.1532C6.26993 23.7053 5.34131 23.2007 4.39107 22.6279C3.59821 22.1499 2.80778 21.6611 2.0219 21.1607ZM2.29377 25.1648C3.52692 31.6729 8.52575 37.1338 15.4069 38.6235C16.293 38.8153 17.1779 38.9336 18.0552 38.9838C17.5724 38.6882 17.0871 38.4035 16.667 38.1571C16.2822 37.9314 15.9478 37.735 15.7442 37.6082C14.9128 37.0896 14.1036 36.5491 13.329 35.9645C12.5521 35.3779 11.8067 34.7437 11.1041 34.0387C10.153 33.0844 9.34508 32.0624 8.67873 30.9776C8.0395 29.9387 7.53086 28.8414 7.1505 27.6914C6.42228 27.3864 5.7137 27.0575 5.01503 26.7013C4.25091 26.3121 3.48679 25.8851 2.70984 25.4167L2.29377 25.1648ZM28.3324 36.2203C29.1449 35.6871 29.9118 35.0847 30.6241 34.4193C30.2582 33.6718 29.827 32.9923 29.3364 32.357C28.5999 31.4031 27.726 30.5431 26.7384 29.6984C26.4387 29.4419 26.1253 29.1876 25.8062 28.9284C24.7145 28.0422 23.5497 27.0963 22.7353 25.9491L22.3369 25.3881L23.0156 25.2775C24.3384 25.0619 25.6165 24.7005 26.913 24.334C27.2206 24.2471 27.529 24.1597 27.9943 24.0324L28.0532 24.0163C30.671 23.2998 33.2078 22.6057 35.9831 22.9462C36.0375 21.9836 36.0099 21.0302 35.904 20.0939C32.7537 19.7981 29.9888 20.5543 27.2474 21.3043C25.5512 21.7684 23.8757 22.3209 22.1252 22.5506C19.8631 22.8476 17.9704 22.8257 19.6554 26.2879C21.7511 30.5947 26.474 31.6788 28.3324 36.2203ZM31.2656 33.7877C31.8509 33.18 32.3932 32.5267 32.8857 31.8314C32.0076 30.3987 30.858 29.0275 29.4009 27.705L28.8233 27.1808L29.5771 26.9748C30.55 26.7088 31.5555 26.4457 32.5726 26.2822C33.542 26.1263 34.5209 26.0607 35.4894 26.1672C35.5365 25.9808 35.5815 25.7933 35.6224 25.604C35.7527 25.0019 35.8488 24.4004 35.913 23.8013C33.2885 23.4713 30.823 24.1458 28.2783 24.8423L28.2194 24.8584C27.9611 24.929 27.5511 25.0451 27.1446 25.16C26.0555 25.4679 24.979 25.7722 23.8606 25.9952C24.5729 26.8231 25.4835 27.5628 26.3467 28.2635C26.6752 28.5302 26.9977 28.7922 27.2958 29.0471C28.3236 29.9262 29.2372 30.8264 30.0146 31.8334C30.4836 32.4409 30.9023 33.0861 31.2656 33.7877ZM33.4074 31.0497C34.1845 29.8117 34.8111 28.457 35.2557 27.0051C34.4163 26.9286 33.5599 26.9909 32.7068 27.1283C31.9816 27.2449 31.257 27.4156 30.5448 27.6016C31.6926 28.7131 32.6404 29.8603 33.4074 31.0497Z" fill="#007EDB"/>
<path d="M45.13 31.4269V10.7104H62.1036V31.4269H56.4748V15.2947H50.7589V31.4269H45.13Z" fill="white"/>
<path d="M73.8911 10.7104C76.5218 10.7104 78.4851 11.281 79.7811 12.4223C81.0964 13.5635 81.7541 15.1883 81.7541 17.2967C81.7541 18.2446 81.6187 19.1537 81.3479 20.0241C81.0771 20.8752 80.6322 21.649 80.0132 22.3453C79.4136 23.0223 78.6108 23.5639 77.605 23.9701C76.5991 24.357 75.3612 24.5504 73.8911 24.5504H72.3243V31.4269H66.7244V10.7104H73.8911ZM73.775 15.2367H72.3243V19.9951H73.4269C74.1619 19.9951 74.8002 19.8114 75.3418 19.4438C75.8834 19.057 76.1542 18.3896 76.1542 17.4418C76.1542 16.7841 75.9608 16.2522 75.5739 15.846C75.1871 15.4398 74.5874 15.2367 73.775 15.2367Z" fill="white"/>
<path d="M85.2021 10.7104H90.4247V20.1982C90.4247 21.0493 90.4054 21.9584 90.3667 22.9256C90.328 23.8734 90.27 24.6568 90.1926 25.2758H90.3087L98.839 10.7104H105.251V31.4269H100.029V22.4614C100.029 21.9391 100.038 21.3395 100.058 20.6625C100.077 19.9661 100.106 19.2794 100.145 18.6024C100.203 17.9254 100.251 17.3451 100.29 16.8615H100.174L91.6433 31.4269H85.2021V10.7104Z" fill="white"/>
<path d="M118.996 31.4269H113.396V15.2947H108.348V10.7104H124.045V15.2947H118.996V31.4269Z" fill="white"/>
<path d="M145.959 21.0396C145.959 23.1867 145.611 25.063 144.915 26.6685C144.238 28.2546 143.155 29.4926 141.665 30.3824C140.195 31.2722 138.27 31.7171 135.891 31.7171C133.57 31.7171 131.665 31.2722 130.175 30.3824C128.686 29.4926 127.583 28.245 126.868 26.6395C126.171 25.034 125.823 23.1577 125.823 21.0106C125.823 18.8635 126.181 16.9969 126.897 15.4108C127.612 13.8053 128.715 12.5673 130.204 11.6969C131.694 10.8265 133.599 10.3912 135.92 10.3912C138.28 10.3912 140.195 10.8361 141.665 11.7259C143.155 12.5964 144.238 13.8343 144.915 15.4398C145.611 17.0259 145.959 18.8926 145.959 21.0396ZM131.713 21.0396C131.713 22.9159 132.032 24.386 132.671 25.4499C133.328 26.5138 134.402 27.0457 135.891 27.0457C137.439 27.0457 138.522 26.5138 139.141 25.4499C139.76 24.386 140.069 22.9159 140.069 21.0396C140.069 19.1634 139.76 17.6836 139.141 16.6004C138.522 15.5172 137.448 14.9756 135.92 14.9756C134.392 14.9756 133.309 15.5172 132.671 16.6004C132.032 17.6836 131.713 19.1634 131.713 21.0396Z" fill="white"/>
<path d="M167.949 31.4269H161.624L155.473 20.9236V31.4269H149.844V10.7104H155.473V20.7495L161.392 10.7104H167.543L161.159 20.6044L167.949 31.4269Z" fill="white"/>
</svg>
